<mxfile host="app.diagrams.net" agent="Mozilla/5.0 (Windows NT 10.0; Win64; x64) AppleWebKit/537.36 (KHTML, like Gecko) Chrome/131.0.0.0 Safari/537.36" version="25.0.3">
  <diagram name="Page-1" id="S2_UK1SQngqUvLWVZnbL">
    <mxGraphModel dx="2514" dy="908" grid="1" gridSize="10" guides="1" tooltips="1" connect="1" arrows="1" fold="1" page="1" pageScale="1" pageWidth="827" pageHeight="1169" math="0" shadow="0">
      <root>
        <mxCell id="0" />
        <mxCell id="1" parent="0" />
        <mxCell id="_mWH3qcYxVb7MyVM2dTD-1" value="CRM" style="rounded=0;whiteSpace=wrap;html=1;" vertex="1" parent="1">
          <mxGeometry x="30" y="680" width="120" height="60" as="geometry" />
        </mxCell>
        <mxCell id="_mWH3qcYxVb7MyVM2dTD-11" style="edgeStyle=orthogonalEdgeStyle;rounded=0;orthogonalLoop=1;jettySize=auto;html=1;entryX=0;entryY=0;entryDx=0;entryDy=0;" edge="1" parent="1" source="_mWH3qcYxVb7MyVM2dTD-2" target="_mWH3qcYxVb7MyVM2dTD-1">
          <mxGeometry relative="1" as="geometry" />
        </mxCell>
        <mxCell id="_mWH3qcYxVb7MyVM2dTD-12" value="4.Send&amp;nbsp; event to CRM" style="edgeLabel;html=1;align=center;verticalAlign=middle;resizable=0;points=[];" vertex="1" connectable="0" parent="_mWH3qcYxVb7MyVM2dTD-11">
          <mxGeometry x="0.33" y="-3" relative="1" as="geometry">
            <mxPoint as="offset" />
          </mxGeometry>
        </mxCell>
        <mxCell id="_mWH3qcYxVb7MyVM2dTD-2" value="Google" style="rounded=0;whiteSpace=wrap;html=1;" vertex="1" parent="1">
          <mxGeometry x="220" y="440" width="120" height="60" as="geometry" />
        </mxCell>
        <mxCell id="_mWH3qcYxVb7MyVM2dTD-3" value="Booking" style="rounded=0;whiteSpace=wrap;html=1;" vertex="1" parent="1">
          <mxGeometry x="440" y="680" width="120" height="60" as="geometry" />
        </mxCell>
        <mxCell id="_mWH3qcYxVb7MyVM2dTD-4" value="" style="endArrow=classic;html=1;rounded=0;exitX=1;exitY=0;exitDx=0;exitDy=0;entryX=1;entryY=0;entryDx=0;entryDy=0;" edge="1" parent="1" source="_mWH3qcYxVb7MyVM2dTD-3" target="_mWH3qcYxVb7MyVM2dTD-2">
          <mxGeometry width="50" height="50" relative="1" as="geometry">
            <mxPoint x="540" y="660" as="sourcePoint" />
            <mxPoint x="380" y="480" as="targetPoint" />
            <Array as="points">
              <mxPoint x="560" y="440" />
            </Array>
          </mxGeometry>
        </mxCell>
        <mxCell id="_mWH3qcYxVb7MyVM2dTD-5" value="" style="endArrow=classic;html=1;rounded=0;exitX=1;exitY=0.25;exitDx=0;exitDy=0;entryX=0.75;entryY=0;entryDx=0;entryDy=0;" edge="1" parent="1" source="_mWH3qcYxVb7MyVM2dTD-2" target="_mWH3qcYxVb7MyVM2dTD-3">
          <mxGeometry width="50" height="50" relative="1" as="geometry">
            <mxPoint x="350" y="500" as="sourcePoint" />
            <mxPoint x="490" y="670" as="targetPoint" />
          </mxGeometry>
        </mxCell>
        <mxCell id="_mWH3qcYxVb7MyVM2dTD-6" value="1 . Check Availabilities" style="text;html=1;align=center;verticalAlign=middle;resizable=0;points=[];autosize=1;strokeColor=none;fillColor=none;" vertex="1" parent="1">
          <mxGeometry x="450" y="410" width="140" height="30" as="geometry" />
        </mxCell>
        <mxCell id="_mWH3qcYxVb7MyVM2dTD-7" value="2. Send availabilites" style="text;html=1;align=center;verticalAlign=middle;resizable=0;points=[];autosize=1;strokeColor=none;fillColor=none;" vertex="1" parent="1">
          <mxGeometry x="400" y="520" width="130" height="30" as="geometry" />
        </mxCell>
        <mxCell id="_mWH3qcYxVb7MyVM2dTD-9" value="" style="endArrow=classic;html=1;rounded=0;" edge="1" parent="1">
          <mxGeometry width="50" height="50" relative="1" as="geometry">
            <mxPoint x="440" y="670" as="sourcePoint" />
            <mxPoint x="329" y="510" as="targetPoint" />
          </mxGeometry>
        </mxCell>
        <mxCell id="_mWH3qcYxVb7MyVM2dTD-10" value="3.Create an Event" style="edgeLabel;html=1;align=center;verticalAlign=middle;resizable=0;points=[];" vertex="1" connectable="0" parent="_mWH3qcYxVb7MyVM2dTD-9">
          <mxGeometry x="0.4421" y="-4" relative="1" as="geometry">
            <mxPoint x="7" y="42" as="offset" />
          </mxGeometry>
        </mxCell>
        <mxCell id="_mWH3qcYxVb7MyVM2dTD-13" value="" style="curved=1;endArrow=classic;html=1;rounded=0;" edge="1" parent="1">
          <mxGeometry width="50" height="50" relative="1" as="geometry">
            <mxPoint x="110" y="780" as="sourcePoint" />
            <mxPoint x="110" y="750" as="targetPoint" />
            <Array as="points">
              <mxPoint x="90" y="810" />
              <mxPoint x="40" y="760" />
            </Array>
          </mxGeometry>
        </mxCell>
        <mxCell id="_mWH3qcYxVb7MyVM2dTD-14" value="5. Add&amp;nbsp; event to CRM agenda" style="edgeLabel;html=1;align=center;verticalAlign=middle;resizable=0;points=[];" vertex="1" connectable="0" parent="_mWH3qcYxVb7MyVM2dTD-13">
          <mxGeometry x="-0.0359" y="-4" relative="1" as="geometry">
            <mxPoint as="offset" />
          </mxGeometry>
        </mxCell>
        <mxCell id="_mWH3qcYxVb7MyVM2dTD-18" value="Customer&amp;nbsp;" style="rounded=0;whiteSpace=wrap;html=1;" vertex="1" parent="1">
          <mxGeometry x="430" y="850" width="120" height="60" as="geometry" />
        </mxCell>
        <mxCell id="_mWH3qcYxVb7MyVM2dTD-19" style="edgeStyle=orthogonalEdgeStyle;rounded=0;orthogonalLoop=1;jettySize=auto;html=1;entryX=0.433;entryY=1.017;entryDx=0;entryDy=0;entryPerimeter=0;" edge="1" parent="1" source="_mWH3qcYxVb7MyVM2dTD-18" target="_mWH3qcYxVb7MyVM2dTD-3">
          <mxGeometry relative="1" as="geometry" />
        </mxCell>
        <mxCell id="_mWH3qcYxVb7MyVM2dTD-20" value="WANT A MEETING" style="edgeLabel;html=1;align=center;verticalAlign=middle;resizable=0;points=[];" vertex="1" connectable="0" parent="_mWH3qcYxVb7MyVM2dTD-19">
          <mxGeometry x="0.1894" y="3" relative="1" as="geometry">
            <mxPoint as="offset" />
          </mxGeometry>
        </mxCell>
        <mxCell id="_mWH3qcYxVb7MyVM2dTD-39" value="CRM" style="rounded=0;whiteSpace=wrap;html=1;" vertex="1" parent="1">
          <mxGeometry x="790" y="700" width="120" height="60" as="geometry" />
        </mxCell>
        <mxCell id="_mWH3qcYxVb7MyVM2dTD-40" style="edgeStyle=orthogonalEdgeStyle;rounded=0;orthogonalLoop=1;jettySize=auto;html=1;entryX=0;entryY=0;entryDx=0;entryDy=0;" edge="1" parent="1" source="_mWH3qcYxVb7MyVM2dTD-42" target="_mWH3qcYxVb7MyVM2dTD-39">
          <mxGeometry relative="1" as="geometry" />
        </mxCell>
        <mxCell id="_mWH3qcYxVb7MyVM2dTD-41" value="2.Send evenT to CRM" style="edgeLabel;html=1;align=center;verticalAlign=middle;resizable=0;points=[];" vertex="1" connectable="0" parent="_mWH3qcYxVb7MyVM2dTD-40">
          <mxGeometry x="0.33" y="-3" relative="1" as="geometry">
            <mxPoint as="offset" />
          </mxGeometry>
        </mxCell>
        <mxCell id="_mWH3qcYxVb7MyVM2dTD-42" value="Google" style="rounded=0;whiteSpace=wrap;html=1;" vertex="1" parent="1">
          <mxGeometry x="980" y="460" width="120" height="60" as="geometry" />
        </mxCell>
        <mxCell id="_mWH3qcYxVb7MyVM2dTD-43" value="YOU" style="rounded=0;whiteSpace=wrap;html=1;" vertex="1" parent="1">
          <mxGeometry x="1290" y="460" width="120" height="60" as="geometry" />
        </mxCell>
        <mxCell id="_mWH3qcYxVb7MyVM2dTD-44" value="" style="endArrow=classic;html=1;rounded=0;exitX=1;exitY=0;exitDx=0;exitDy=0;entryX=1;entryY=0;entryDx=0;entryDy=0;" edge="1" parent="1" source="_mWH3qcYxVb7MyVM2dTD-43" target="_mWH3qcYxVb7MyVM2dTD-42">
          <mxGeometry width="50" height="50" relative="1" as="geometry">
            <mxPoint x="1300" y="680" as="sourcePoint" />
            <mxPoint x="1140" y="500" as="targetPoint" />
            <Array as="points">
              <mxPoint x="1320" y="460" />
            </Array>
          </mxGeometry>
        </mxCell>
        <mxCell id="_mWH3qcYxVb7MyVM2dTD-46" value="Create an event" style="text;html=1;align=center;verticalAlign=middle;resizable=0;points=[];autosize=1;strokeColor=none;fillColor=none;" vertex="1" parent="1">
          <mxGeometry x="1225" y="430" width="110" height="30" as="geometry" />
        </mxCell>
        <mxCell id="_mWH3qcYxVb7MyVM2dTD-50" value="" style="curved=1;endArrow=classic;html=1;rounded=0;" edge="1" parent="1">
          <mxGeometry width="50" height="50" relative="1" as="geometry">
            <mxPoint x="870" y="800" as="sourcePoint" />
            <mxPoint x="870" y="770" as="targetPoint" />
            <Array as="points">
              <mxPoint x="850" y="830" />
              <mxPoint x="800" y="780" />
            </Array>
          </mxGeometry>
        </mxCell>
        <mxCell id="_mWH3qcYxVb7MyVM2dTD-51" value="5. Add&amp;nbsp; event to CRM agenda" style="edgeLabel;html=1;align=center;verticalAlign=middle;resizable=0;points=[];" vertex="1" connectable="0" parent="_mWH3qcYxVb7MyVM2dTD-50">
          <mxGeometry x="-0.0359" y="-4" relative="1" as="geometry">
            <mxPoint as="offset" />
          </mxGeometry>
        </mxCell>
        <mxCell id="_mWH3qcYxVb7MyVM2dTD-57" value="" style="endArrow=none;html=1;rounded=0;strokeWidth=10;" edge="1" parent="1">
          <mxGeometry width="50" height="50" relative="1" as="geometry">
            <mxPoint x="690" y="920" as="sourcePoint" />
            <mxPoint x="690" y="400" as="targetPoint" />
          </mxGeometry>
        </mxCell>
        <mxCell id="_mWH3qcYxVb7MyVM2dTD-58" value="&lt;b&gt;&lt;font style=&quot;font-size: 18px;&quot;&gt;OR&lt;/font&gt;&lt;/b&gt;" style="text;html=1;align=center;verticalAlign=middle;resizable=0;points=[];autosize=1;strokeColor=none;fillColor=none;" vertex="1" parent="1">
          <mxGeometry x="665" y="363" width="50" height="40" as="geometry" />
        </mxCell>
        <mxCell id="_mWH3qcYxVb7MyVM2dTD-59" value="" style="verticalLabelPosition=bottom;verticalAlign=top;html=1;shape=mxgraph.basic.x;strokeColor=#FF0000;" vertex="1" parent="1">
          <mxGeometry x="140" y="550" width="100" height="100" as="geometry" />
        </mxCell>
        <mxCell id="_mWH3qcYxVb7MyVM2dTD-60" value="" style="verticalLabelPosition=bottom;verticalAlign=top;html=1;shape=mxgraph.basic.x;strokeColor=#FF0000;" vertex="1" parent="1">
          <mxGeometry x="930" y="550" width="100" height="100" as="geometry" />
        </mxCell>
      </root>
    </mxGraphModel>
  </diagram>
</mxfile>
